<svg xmlns="http://www.w3.org/2000/svg" viewBox="0 0 32 32" fill="none">
  <defs>
    <linearGradient id="dokanos-gradient" x1="0%" y1="0%" x2="100%" y2="100%">
      <stop offset="0%" stop-color="#4F46E5" />
      <stop offset="100%" stop-color="#7C3AED" />
    </linearGradient>
    <filter id="glow" x="-20%" y="-20%" width="140%" height="140%">
      <feDropShadow dx="0" dy="2" stdDeviation="1.5" flood-color="#4F46E5" flood-opacity="0.3"/>
    </filter>
  </defs>
  <!-- Background Rounded Shield / Tile -->
  <rect width="32" height="32" rx="7" fill="url(#dokanos-gradient)" />
  
  <!-- Subtle inner border -->
  <rect x="0.5" y="0.5" width="31" height="31" rx="6.5" stroke="#FFFFFF" stroke-opacity="0.15" />

  <!-- Dokan Store Canopy & Letter D Geometry -->
  <g filter="url(#glow)">
    <!-- Store Roof Canopy Wave -->
    <path d="M7 11.5C7 10.67 7.67 10 8.5 10H23.5C24.33 10 25 10.67 25 11.5C25 12.33 24.33 13 23.5 13C22.67 13 22 12.33 22 11.5C22 12.33 21.33 13 20.5 13C19.67 13 19 12.33 19 11.5C19 12.33 18.33 13 17.5 13C16.67 13 16 12.33 16 11.5C16 12.33 15.33 13 14.5 13C13.67 13 13 12.33 13 11.5C13 12.33 12.33 13 11.5 13C10.67 13 10 12.33 10 11.5C10 12.33 9.33 13 8.5 13C7.67 13 7 12.33 7 11.5Z" fill="#FFFFFF" fill-opacity="0.9" />
    
    <!-- Bold Modern "D" Storefront Pillar -->
    <path d="M10 15H15.5C18.5 15 20.8 17 20.8 19.8C20.8 22.6 18.5 24.6 15.5 24.6H10V15ZM12.8 22.2H15.4C16.9 22.2 18 21.2 18 19.8C18 18.4 16.9 17.4 15.4 17.4H12.8V22.2Z" fill="#FFFFFF" />
    
    <!-- Tech Accent Dot / Sparkle -->
    <circle cx="22" cy="16.5" r="1.5" fill="#38BDF8" />
  </g>
</svg>
